<?xml version="1.0" encoding="UTF-8"?>
<svg version="1.1" xmlns="http://www.w3.org/2000/svg" width="382" height="243">
<path d="M0 0 C1.6027906 -0.00422974 1.6027906 -0.00422974 3.23796082 -0.00854492 C4.42033829 -0.00652069 5.60271576 -0.00449646 6.82092285 -0.00241089 C8.05816605 -0.00416321 9.29540924 -0.00591553 10.57014465 -0.00772095 C13.97295789 -0.01137922 17.37571068 -0.01050598 20.77852058 -0.00734186 C24.33216562 -0.00481795 27.88580799 -0.00715589 31.43945312 -0.00872803 C37.40824856 -0.01054963 43.37703164 -0.00814366 49.3458252 -0.00338745 C56.25600916 0.00205515 63.16616362 0.00029249 70.07634687 -0.00521386 C75.99905383 -0.00974525 81.92175188 -0.01039541 87.84446001 -0.00777519 C91.38631709 -0.00621256 94.92816028 -0.00601826 98.47001648 -0.00931168 C102.41642411 -0.01272464 106.36279843 -0.00800022 110.3092041 -0.00241089 C112.08277031 -0.00544724 112.08277031 -0.00544724 113.89216614 -0.00854492 C115.49495674 -0.00431519 115.49495674 -0.00431519 117.13012695 0 C118.06444801 0.00037703 118.99876907 0.00075405 119.96140289 0.0011425 C122.06506348 0.12698364 122.06506348 0.12698364 123.06506348 1.12698364 C123.1517578 2.61570224 123.17209841 4.10842864 123.16271973 5.59963989 C123.16022217 6.40925171 123.15772461 7.21886353 123.15515137 8.05300903 C123.14604736 9.08804565 123.13694336 10.12308228 123.12756348 11.18948364 C123.10693848 14.46885864 123.08631348 17.74823364 123.06506348 21.12698364 C110.52506348 21.12698364 97.98506348 21.12698364 85.06506348 21.12698364 C85.56006348 26.07698364 85.56006348 26.07698364 86.06506348 31.12698364 C85.73506348 32.11698364 85.40506348 33.10698364 85.06506348 34.12698364 C77.80506348 34.12698364 70.54506348 34.12698364 63.06506348 34.12698364 C62.57006348 30.16698364 62.57006348 30.16698364 62.06506348 26.12698364 C61.73506348 24.47698364 61.40506348 22.82698364 61.06506348 21.12698364 C47.20506348 21.12698364 33.34506348 21.12698364 19.06506348 21.12698364 C18.73506348 36.30698364 18.40506348 51.48698364 18.06506348 67.12698364 C29.94506348 67.12698364 41.82506348 67.12698364 54.06506348 67.12698364 C54.06506348 73.06698364 54.06506348 79.00698364 54.06506348 85.12698364 C50.03585307 86.13428625 46.81515613 86.24107131 42.67443848 86.22463989 C41.96982483 86.22322495 41.26521118 86.22181 40.53924561 86.22035217 C38.29780764 86.21477298 36.05647105 86.20222438 33.81506348 86.18948364 C32.29162742 86.18446595 30.7681898 86.17990351 29.24475098 86.17581177 C25.51815576 86.16481039 21.79161952 86.14756011 18.06506348 86.12698364 C18.14232666 87.07525024 18.21958984 88.02351685 18.29919434 89.0005188 C18.44433472 90.87682983 18.44433472 90.87682983 18.59240723 92.79104614 C18.7392395 94.64657104 18.7392395 94.64657104 18.88903809 96.5395813 C19.10267966 100.89360255 18.7320928 104.82835019 18.06506348 109.12698364 C15.936224 107.9459992 13.81222255 106.7573743 11.69006348 105.56448364 C10.81414551 105.08011841 10.81414551 105.08011841 9.92053223 104.58596802 C8.69561045 103.89447992 7.48697236 103.17343308 6.2953949 102.4259491 C4.06815118 101.0579833 4.06815118 101.0579833 1.51869202 100.09608459 C-1.79516878 98.45448932 -3.64856933 97.06424441 -5.93493652 94.12698364 C-7.8494591 87.41709067 -7.1182879 80.03061611 -6.94665527 73.13479614 C-6.93053058 71.06214202 -6.91869598 68.98945047 -6.91096497 66.91674805 C-6.87853412 61.47440017 -6.78519751 56.03471102 -6.67987061 50.59335327 C-6.58441153 45.03978545 -6.55173966 39.48585841 -6.5111084 33.93167114 C-6.43975234 25.84282249 -6.35346836 17.75440632 -6.20715332 9.66653442 C-6.19503815 8.81150833 -6.18292297 7.95648224 -6.17044067 7.07554626 C-6.02577201 0.00243157 -6.02577201 0.00243157 0 0 Z M62.06506348 21.12698364 C63.06506348 23.12698364 63.06506348 23.12698364 63.06506348 23.12698364 Z " fill="#010102" transform="translate(118.9349365234375,52.873016357421875)"/>
<path d="M0 0 C7.32182139 0.34143209 14.60702237 0.62893937 21.9375 0.5625 C22.9275 0.5625 23.9175 0.5625 24.9375 0.5625 C25.73285156 0.55089844 26.52820313 0.53929688 27.34765625 0.52734375 C28.66056641 0.51380859 28.66056641 0.51380859 30 0.5 C30.87785156 0.48839844 31.75570312 0.47679688 32.66015625 0.46484375 C34.9375 0.5625 34.9375 0.5625 36.9375 1.5625 C36.9375 7.8325 36.9375 14.1025 36.9375 20.5625 C25.60808891 26.22720554 11.59928266 20.91421619 -1.0625 20.5625 C-1.0625 47.6225 -1.0625 74.6825 -1.0625 102.5625 C-13.64779412 95.69779412 -13.64779412 95.69779412 -18.1875 92.8125 C-19.55261719 91.95398438 -19.55261719 91.95398438 -20.9453125 91.078125 C-23.0625 89.5625 -23.0625 89.5625 -24.0625 87.5625 C-24.1580122 85.90542878 -24.19045234 84.24453773 -24.19189453 82.5847168 C-24.19504669 81.54570724 -24.19819885 80.50669769 -24.20144653 79.436203 C-24.1994223 78.3061232 -24.19739807 77.1760434 -24.1953125 76.01171875 C-24.19626923 74.84679398 -24.19722595 73.6818692 -24.19821167 72.48164368 C-24.19889373 70.00590969 -24.19703764 67.53017393 -24.19287109 65.05444336 C-24.187576 61.30383147 -24.19278758 57.55334225 -24.19921875 53.80273438 C-24.19855694 51.39322891 -24.19727365 48.98372351 -24.1953125 46.57421875 C-24.19733673 45.46640549 -24.19936096 44.35859222 -24.20144653 43.21720886 C-24.17900741 35.57403373 -23.6523301 28.23029134 -23.0625 20.5625 C-35.2725 20.5625 -47.4825 20.5625 -60.0625 20.5625 C-60.0625 13.9625 -60.0625 7.3625 -60.0625 0.5625 C-57.50757813 0.57410156 -54.95265625 0.58570312 -52.3203125 0.59765625 C-49.81477991 0.6054802 -47.30924873 0.61153792 -44.80371094 0.61743164 C-43.07746765 0.62242544 -41.35122851 0.62922279 -39.625 0.63793945 C-27.50470225 0.71052622 -27.50470225 0.71052622 -15.43359375 -0.24389648 C-10.29761844 -0.66325691 -5.13806606 -0.25823902 0 0 Z " fill="#000001" transform="translate(205.0625,90.4375)"/>
<path d="M0 0 C7.26 0 14.52 0 22 0 C22 19.14 22 38.28 22 58 C22.66 58.33 23.32 58.66 24 59 C23.34 59 22.68 59 22 59 C22.24145752 59.74080811 22.24145752 59.74080811 22.48779297 60.49658203 C23.67331024 66.29081182 23.21174135 72.45686272 23.14257812 78.35302734 C23.13088454 80.03073237 23.13699508 81.70865834 23.16113281 83.38623047 C23.35266195 97.31039844 23.35266195 97.31039844 20.11425781 101.35546875 C17.79505037 102.91515268 15.59783058 103.98445947 13 105 C11.9996875 105.60328125 10.999375 106.2065625 9.96875 106.828125 C8.30276722 107.78764673 6.63608339 108.74595213 4.96875 109.703125 C2.86449642 110.85357431 2.86449642 110.85357431 2 113 C1.01 112.67 0.02 112.34 -1 112 C-0.98839844 111.15179688 -0.97679687 110.30359375 -0.96484375 109.4296875 C-0.90670819 101.8720646 -1.18095726 94.49189329 -1.87890625 86.9609375 C-1.98645139 84.33128539 -1.81537236 82.47631606 -1 80 C-1.99 79.505 -1.99 79.505 -3 79 C-2.01 79 -1.02 79 0 79 C-0.33 77.68 -0.66 76.36 -1 75 C-18.36804923 85.48740697 -18.36804923 85.48740697 -35.453125 96.42578125 C-38 98 -38 98 -41 99 C-42.52403226 91.44040921 -43.82907418 83.36028331 -41 76 C-34.59497301 69.20319067 -25.43918599 65.64348906 -17 62 C-14.43576032 60.81652638 -13.01964873 60.01964873 -11 58 C-9.31182002 57.08672231 -7.60050509 56.21563069 -5.875 55.375 C-4.96492188 54.92898437 -4.05484375 54.48296875 -3.1171875 54.0234375 C-2.41851562 53.68570313 -1.71984375 53.34796875 -1 53 C-1.00222061 52.35076065 -1.00444122 51.7015213 -1.00672913 51.03260803 C-1.02878002 44.30112252 -1.04390577 37.56964719 -1.05493164 30.83813477 C-1.05997363 28.32283105 -1.06680703 25.80753028 -1.07543945 23.29223633 C-1.08751094 19.68570225 -1.09322949 16.07920677 -1.09765625 12.47265625 C-1.10281754 11.34038101 -1.10797882 10.20810577 -1.11329651 9.04151917 C-1.11337204 8.00051559 -1.11344757 6.95951202 -1.11352539 5.88696289 C-1.115746 4.96540909 -1.11796661 4.04385529 -1.12025452 3.09437561 C-1 1 -1 1 0 0 Z " fill="#020202" transform="translate(254,53)"/>
<path d="M0 0 C0.33 0 0.66 0 1 0 C1 1.65 1 3.3 1 5 C0.67 5 0.34 5 0 5 C0 3.35 0 1.7 0 0 Z " fill="#000000" transform="translate(211,131)"/>
<path d="" fill="#000000" transform="translate(0,0)"/>
<path d="M0 0 C0.66 0 1.32 0 2 0 C1.67 0.66 1.34 1.32 1 2 C0.67 1.34 0.34 0.68 0 0 Z " fill="#151515" transform="translate(250,54)"/>
<path d="M0 0 C2 1 2 1 2 1 Z " fill="#000000" transform="translate(183,182)"/>
<path d="" fill="#000000" transform="translate(0,0)"/>
<path d="" fill="#000000" transform="translate(0,0)"/>
<path d="M0 0 C2 1 2 1 2 1 Z " fill="#000000" transform="translate(227,119)"/>
<path d="" fill="#000000" transform="translate(0,0)"/>
<path d="" fill="#000000" transform="translate(0,0)"/>
<path d="" fill="#3F3F3F" transform="translate(0,0)"/>
<path d="" fill="#000000" transform="translate(0,0)"/>
<path d="" fill="#000000" transform="translate(0,0)"/>
<path d="" fill="#000000" transform="translate(0,0)"/>
<path d="" fill="#000000" transform="translate(0,0)"/>
<path d="" fill="#000000" transform="translate(0,0)"/>
<path d="" fill="#000000" transform="translate(0,0)"/>
<path d="" fill="#000000" transform="translate(0,0)"/>
<path d="" fill="#000000" transform="translate(0,0)"/>
<path d="" fill="#000000" transform="translate(0,0)"/>
<path d="" fill="#000000" transform="translate(0,0)"/>
<path d="" fill="#000000" transform="translate(0,0)"/>
<path d="" fill="#000000" transform="translate(0,0)"/>
<path d="" fill="#000000" transform="translate(0,0)"/>
<path d="" fill="#000000" transform="translate(0,0)"/>
<path d="" fill="#000000" transform="translate(0,0)"/>
<path d="" fill="#000000" transform="translate(0,0)"/>
<path d="" fill="#000000" transform="translate(0,0)"/>
<path d="" fill="#000000" transform="translate(0,0)"/>
<path d="" fill="#000000" transform="translate(0,0)"/>
<path d="" fill="#000000" transform="translate(0,0)"/>
<path d="" fill="#000000" transform="translate(0,0)"/>
<path d="" fill="#000000" transform="translate(0,0)"/>
<path d="" fill="#000000" transform="translate(0,0)"/>
<path d="" fill="#000000" transform="translate(0,0)"/>
<path d="" fill="#000000" transform="translate(0,0)"/>
<path d="" fill="#000000" transform="translate(0,0)"/>
<path d="" fill="#000000" transform="translate(0,0)"/>
<path d="" fill="#000000" transform="translate(0,0)"/>
<path d="" fill="#000000" transform="translate(0,0)"/>
<path d="" fill="#000000" transform="translate(0,0)"/>
<path d="" fill="#000000" transform="translate(0,0)"/>
<path d="" fill="#000000" transform="translate(0,0)"/>
<path d="" fill="#000000" transform="translate(0,0)"/>
<path d="" fill="#000000" transform="translate(0,0)"/>
<path d="" fill="#000000" transform="translate(0,0)"/>
<path d="" fill="#000000" transform="translate(0,0)"/>
<path d="" fill="#000000" transform="translate(0,0)"/>
<path d="" fill="#000000" transform="translate(0,0)"/>
<path d="" fill="#000000" transform="translate(0,0)"/>
<path d="" fill="#000000" transform="translate(0,0)"/>
<path d="" fill="#000000" transform="translate(0,0)"/>
<path d="" fill="#000000" transform="translate(0,0)"/>
<path d="" fill="#000000" transform="translate(0,0)"/>
</svg>
